<svg xmlns="http://www.w3.org/2000/svg" style="display:none">
  <symbol id="theme" viewBox="0 0 24 24">
    <path d="M12 3a9 9 0 1 0 0 18V3Z"/>
    <path d="M12 3a9 9 0 0 1 0 18"/>
  </symbol>
  <symbol id="sun" viewBox="0 0 24 24">
    <circle cx="12" cy="12" r="4.5"/>
    <path d="M12 2.5v3M12 18.5v3M21.5 12h-3M5.5 12h-3M18.7 5.3l-2.1 2.1M7.4 16.6l-2.1 2.1M18.7 18.7l-2.1-2.1M7.4 7.4 5.3 5.3"/>
  </symbol>
  <symbol id="moon" viewBox="0 0 24 24">
    <path d="M18.5 14.6A7.5 7.5 0 0 1 9.4 5.5 8.6 8.6 0 1 0 18.5 14.6Z"/>
  </symbol>
  <symbol id="panel" viewBox="0 0 24 24">
    <rect x="3" y="4" width="18" height="16" rx="2"/>
    <path d="M8 4v16M11 8h7M11 12h7M11 16h5"/>
  </symbol>
  <symbol id="refresh" viewBox="0 0 24 24">
    <path d="M20 11a8 8 0 0 0-14.5-4.5M4 13a8 8 0 0 0 14.5 4.5"/>
    <path d="M6 3v4h4M18 21v-4h-4"/>
  </symbol>
  <symbol id="user" viewBox="0 0 24 24">
    <circle cx="12" cy="8" r="3.5"/>
    <path d="M5 19a7 7 0 0 1 14 0"/>
    <circle cx="12" cy="12" r="9"/>
  </symbol>
  <symbol id="radar" viewBox="0 0 24 24">
    <circle cx="12" cy="12" r="8"/>
    <circle cx="12" cy="12" r="4"/>
    <path d="M12 12l5-5M12 3v2M21 12h-2M12 21v-2M3 12h2"/>
  </symbol>
  <symbol id="star" viewBox="0 0 24 24">
    <path d="m12 3 2.8 5.7 6.2.9-4.5 4.4 1.1 6.2L12 17.3 6.4 20.2l1.1-6.2L3 9.6l6.2-.9Z"/>
  </symbol>
  <symbol id="upload" viewBox="0 0 24 24">
    <path d="M12 16V5"/>
    <path d="m7.5 9.5 4.5-4.5 4.5 4.5"/>
    <path d="M4 17.5v1A1.5 1.5 0 0 0 5.5 20h13a1.5 1.5 0 0 0 1.5-1.5v-1"/>
  </symbol>
  <symbol id="clipboard" viewBox="0 0 24 24">
    <rect x="6" y="5" width="12" height="16" rx="2"/>
    <path d="M9 5.5V4a1 1 0 0 1 1-1h4a1 1 0 0 1 1 1v1.5"/>
    <path d="M9 10h6M9 14h6M9 18h4"/>
  </symbol>
  <symbol id="turn" viewBox="0 0 24 24">
  <circle cx="12" cy="6" r="2"/>
    <path d="M9 7 4 12l5 5"/>
  </symbol>
  <symbol id="arrow-up" viewBox="0 0 24 24">
    <path d="M12 19V5"/>
    <path d="m7 10 5-5 5 5"/>
  </symbol>
  <symbol id="plus" viewBox="0 0 24 24">
    <circle cx="12" cy="12" r="9"/>
    <path d="M12 8v8M8 12h8"/>
  </symbol>
  <symbol id="check-square" viewBox="0 0 24 24">
    <rect x="4" y="4" width="16" height="16" rx="3"/>
    <path d="m8.5 12 2.5 2.5 4.5-5"/>
  </symbol>
  <symbol id="check" viewBox="0 0 24 24">
    <path d="m5 12 4 4 10-10"/>
  </symbol>
  <symbol id="close-octagon" viewBox="0 0 24 24">
    <path d="M8 3h8l5 5v8l-5 5H8l-5-5V8Z"/>
    <path d="m9 9 6 6M15 9l-6 6"/>
  </symbol>
  <symbol id="close-circle" viewBox="0 0 24 24">
    <circle cx="12" cy="12" r="9"/>
    <path d="m9 9 6 6M15 9l-6 6"/>
  </symbol>
  <symbol id="close" viewBox="0 0 24 24">
    <path d="m7 7 10 10M17 7 7 17"/>
  </symbol>
  <symbol id="trash" viewBox="0 0 24 24">
    <path d="M4 7h16"/>
    <path d="M9 7V4h6v3"/>
    <path d="M7 7l1 12h8l1-12"/>
    <path d="M10 11v5M14 11v5"/>
  </symbol>
  <symbol id="grid" viewBox="0 0 24 24">
    <rect x="4" y="4" width="6" height="6" rx="1.5"/>
    <rect x="14" y="4" width="6" height="6" rx="1.5"/>
    <rect x="4" y="14" width="6" height="6" rx="1.5"/>
    <rect x="14" y="14" width="6" height="6" rx="1.5"/>
  </symbol>
  <symbol id="devices" viewBox="0 0 24 24">
    <rect x="3" y="6" width="12" height="9" rx="2"/>
    <rect x="16" y="9" width="5" height="8" rx="1.5"/>
    <path d="M8 18h2M6 15v3"/>
  </symbol>
  <symbol id="folder" viewBox="0 0 24 24">
    <path d="M4 7.5A2.5 2.5 0 0 1 6.5 5H10l2 2h5.5A2.5 2.5 0 0 1 20 9.5v7A2.5 2.5 0 0 1 17.5 19h-11A2.5 2.5 0 0 1 4 16.5Z"/>
  </symbol>
  <symbol id="chevron-down" viewBox="0 0 24 24">
    <path d="m6 9 6 6 6-6"/>
  </symbol>
  <symbol id="transfer" viewBox="0 0 24 24">
    <path d="M7 7h11"/>
    <path d="m15 4 3 3-3 3"/>
    <path d="M17 17H6"/>
    <path d="m9 14-3 3 3 3"/>
  </symbol>
  <symbol id="arrow-right" viewBox="0 0 24 24">
    <path d="M5 12h14"/>
    <path d="m13 7 6 5-6 5"/>
  </symbol>
  <symbol id="sort-asc" viewBox="0 0 24 24">
    <path d="M7 18V6"/>
    <path d="m4.5 8.5 2.5-2.5 2.5 2.5"/>
    <path d="M12 8h8M12 12h5M12 16h3"/>
  </symbol>
  <symbol id="sort-desc" viewBox="0 0 24 24">
    <path d="M7 6v12"/>
    <path d="m4.5 15.5 2.5 2.5 2.5-2.5"/>
    <path d="M12 8h3M12 12h5M12 16h8"/>
  </symbol>
  <symbol id="sliders" viewBox="0 0 24 24">
    <path d="M5 6h14M5 12h14M5 18h14"/>
    <circle cx="9" cy="6" r="2"/>
    <circle cx="15" cy="12" r="2"/>
    <circle cx="11" cy="18" r="2"/>
  </symbol>
  <symbol id="shield" viewBox="0 0 24 24">
    <path d="M12 3 6 5.5v5.5c0 4 2.4 7.6 6 9 3.6-1.4 6-5 6-9V5.5Z"/>
    <path d="m9.5 12 1.8 1.8 3.2-3.6"/>
  </symbol>
  <symbol id="file" viewBox="0 0 24 24">
    <path d="M8 3h6l4 4v14H8a2 2 0 0 1-2-2V5a2 2 0 0 1 2-2Z"/>
    <path d="M14 3v5h5"/>
  </symbol>
  <symbol id="download" viewBox="0 0 24 24">
    <path d="M12 5v11"/>
    <path d="m7.5 12.5 4.5 4.5 4.5-4.5"/>
    <path d="M4 18.5V20h16v-1.5"/>
  </symbol>
  <symbol id="hourglass" viewBox="0 0 24 24">
    <path d="M7 4h10M7 20h10"/>
    <path d="M8 4c0 3 2 4.5 4 6 2-1.5 4-3 4-6"/>
    <path d="M8 20c0-3 2-4.5 4-6 2 1.5 4 3 4 6"/>
  </symbol>
  <symbol id="drive" viewBox="0 0 24 24">
    <rect x="4" y="6" width="16" height="12" rx="2"/>
    <path d="M8 10h8M8 14h4M17 14h.01"/>
  </symbol>
  <symbol id="cpu" viewBox="0 0 24 24">
    <rect x="7" y="7" width="10" height="10" rx="2"/>
    <path d="M9 1v4M15 1v4M9 19v4M15 19v4M1 9h4M1 15h4M19 9h4M19 15h4"/>
  </symbol>
  <symbol id="memory" viewBox="0 0 24 24">
    <rect x="4" y="8" width="16" height="8" rx="2"/>
    <path d="M7 8V6M11 8V6M15 8V6M17 16v2M13 16v2M9 16v2"/>
  </symbol>
  <symbol id="eye" viewBox="0 0 24 24">
    <path d="M2.5 12S6 5.5 12 5.5 21.5 12 21.5 12 18 18.5 12 18.5 2.5 12 2.5 12Z"/>
    <circle cx="12" cy="12" r="3"/>
  </symbol>
  <symbol id="eye-off" viewBox="0 0 24 24">
    <path d="M3 3l18 18"/>
    <path d="M9.8 5.8A10.4 10.4 0 0 1 12 5.5c6 0 9.5 6.5 9.5 6.5a18.6 18.6 0 0 1-3.1 3.8"/>
    <path d="M6.2 9A18.8 18.8 0 0 0 2.5 12s3.5 6.5 9.5 6.5c1.6 0 3-.3 4.3-.9"/>
  </symbol>
  <symbol id="list" viewBox="0 0 24 24">
    <path d="M9 7h10M9 12h10M9 17h10"/>
    <circle cx="5" cy="7" r="1"/>
    <circle cx="5" cy="12" r="1"/>
    <circle cx="5" cy="17" r="1"/>
  </symbol>
  <symbol id="warning" viewBox="0 0 24 24">
    <path d="M12 4 3.5 19h17Z"/>
    <path d="M12 9v4M12 16h.01"/>
  </symbol>
  <symbol id="home" viewBox="0 0 24 24">
    <path d="m4 10 8-6 8 6"/>
    <path d="M6 9.5V20h12V9.5"/>
  </symbol>
  <symbol id="dashboard" viewBox="0 0 24 24">
    <path d="M4 14a8 8 0 1 1 16 0"/>
    <path d="M12 12l4-4"/>
    <circle cx="12" cy="12" r="1"/>
  </symbol>
  <symbol id="chart" viewBox="0 0 24 24">
    <path d="M4 19h16"/>
    <path d="m6 16 4-4 3 3 5-6"/>
  </symbol>
  <symbol id="bolt" viewBox="0 0 24 24">
    <path d="M13 3 6 13h5l-1 8 8-11h-5Z"/>
  </symbol>
  <symbol id="music" viewBox="0 0 24 24">
    <path d="M14 5v10.5A2.5 2.5 0 1 1 12 13V7l8-2v8.5A2.5 2.5 0 1 1 18 11V5Z"/>
  </symbol>
  <symbol id="play" viewBox="0 0 24 24">
    <path d="m8 6 10 6-10 6Z"/>
  </symbol>
  <symbol id="pause" viewBox="0 0 24 24">
    <path d="M9 6v12M15 6v12"/>
  </symbol>
  <symbol id="stop" viewBox="0 0 24 24">
    <rect x="7" y="7" width="10" height="10" rx="1.5"/>
  </symbol>
  <symbol id="skip-prev" viewBox="0 0 24 24">
    <path d="M7 6v12"/>
    <path d="m17 6-8 6 8 6Z"/>
  </symbol>
  <symbol id="skip-next" viewBox="0 0 24 24">
    <path d="M17 6v12"/>
    <path d="m7 6 8 6-8 6Z"/>
  </symbol>
  <symbol id="volume" viewBox="0 0 24 24">
    <path d="M5 10h3l4-4v12l-4-4H5Z"/>
    <path d="M16 9a4 4 0 0 1 0 6M18.5 6.5a7.5 7.5 0 0 1 0 11"/>
  </symbol>
  <symbol id="info" viewBox="0 0 24 24">
    <circle cx="12" cy="12" r="9"/>
    <path d="M12 11v5M12 8h.01"/>
  </symbol>
  <symbol id="spark" viewBox="0 0 24 24">
    <path d="m12 3 1.8 4.2L18 9l-4.2 1.8L12 15l-1.8-4.2L6 9l4.2-1.8Z"/>
  </symbol>
</svg>
